<svg width="60" height="60" viewBox="0 0 60 60" fill="none" xmlns="http://www.w3.org/2000/svg">
<rect width="60" height="60" fill="#E9EAEE"/>
<path d="M30.5269 12.6168C30.3617 12.5398 30.1817 12.5 29.9994 12.5C29.8172 12.5 29.6371 12.5398 29.4719 12.6168L10.7213 21.367C10.5005 21.4701 10.3147 21.6354 10.1866 21.8427C10.0585 22.05 9.99382 22.2902 10.0005 22.5338C10.0071 22.7774 10.0848 23.0137 10.224 23.2137C10.3631 23.4137 10.5577 23.5687 10.7838 23.6596L29.5344 31.1598C29.8329 31.2794 30.1659 31.2794 30.4644 31.1598L44.9999 25.3496V40.0001C44.3368 40.0001 43.7009 40.2635 43.232 40.7323C42.7632 41.2012 42.4998 41.8371 42.4998 42.5002V47.5003H50V42.5002C50 41.8371 49.7366 41.2012 49.2677 40.7323C48.7989 40.2635 48.163 40.0001 47.4999 40.0001V24.3471L49.215 23.6596C49.4411 23.5687 49.6357 23.4137 49.7748 23.2137C49.914 23.0137 49.9917 22.7774 49.9983 22.5338C50.005 22.2902 49.9403 22.05 49.8122 21.8427C49.6841 21.6354 49.4983 21.4701 49.2775 21.367L30.5269 12.6168Z" fill="#202124"/>
<path d="M20.4407 30.0802C20.2797 30.0196 20.108 29.9928 19.9362 30.0016C19.7644 30.0104 19.5963 30.0546 19.4423 30.1313C19.2884 30.208 19.1519 30.3157 19.0415 30.4476C18.9311 30.5795 18.8491 30.7327 18.8006 30.8978L17.5506 35.1479C17.463 35.4463 17.4898 35.7666 17.6257 36.0463C17.7616 36.3259 17.9969 36.5449 18.2856 36.6604L29.5359 41.1606C29.8344 41.2802 30.1675 41.2802 30.466 41.1606L41.7163 36.6604C42.005 36.5449 42.2403 36.3259 42.3762 36.0463C42.5121 35.7666 42.5389 35.4463 42.4513 35.1479L41.2013 30.8978C41.1528 30.7327 41.0708 30.5795 40.9604 30.4476C40.85 30.3157 40.7135 30.208 40.5596 30.1313C40.4056 30.0546 40.2375 30.0104 40.0657 30.0016C39.894 29.9928 39.7222 30.0196 39.5612 30.0802L30.001 33.6654L20.4407 30.0802Z" fill="#202124"/>
</svg>
